<svg width="30" height="30" viewBox="0 0 30 30" fill="none" xmlns="http://www.w3.org/2000/svg">
<path d="M29.6667 7.00004V1.66671C29.6667 1.31309 29.5262 0.973946 29.2762 0.723897C29.0261 0.473849 28.687 0.333374 28.3333 0.333374H1.66668C1.31305 0.333374 0.973915 0.473849 0.723867 0.723897C0.473818 0.973946 0.333344 1.31309 0.333344 1.66671V7.00004H29.6667Z" fill="#0EA5E9"/>
<path d="M0.333344 9.66675V28.3334C0.333344 28.687 0.473818 29.0262 0.723867 29.2762C0.973915 29.5263 1.31305 29.6667 1.66668 29.6667H8.33334V9.66675H0.333344Z" fill="#A5F3FC"/>
<path d="M11 29.6667H28.3333C28.687 29.6667 29.0261 29.5263 29.2761 29.2762C29.5262 29.0262 29.6667 28.687 29.6667 28.3334V9.66675H11V29.6667Z" fill="#22D3EE"/>
</svg>
