<svg width="84" height="20" viewBox="0 0 84 20" fill="none" xmlns="http://www.w3.org/2000/svg">
<path d="M1.204 15V5.032H5.222C6.314 5.032 7.14467 5.27467 7.714 5.76C8.29267 6.236 8.582 6.92667 8.582 7.832C8.582 8.69067 8.288 9.36733 7.7 9.862C7.112 10.3567 6.29067 10.604 5.236 10.604L6.286 10.408C6.65 10.408 6.96267 10.5107 7.224 10.716C7.48533 10.912 7.69533 11.2293 7.854 11.668L9.114 15H7.728L6.496 11.682C6.34667 11.2807 6.13667 11.0147 5.866 10.884C5.60467 10.7533 5.25467 10.688 4.816 10.688H2.478V15H1.204ZM2.478 9.638H5.096C5.852 9.638 6.412 9.48867 6.776 9.19C7.14 8.882 7.322 8.434 7.322 7.846C7.322 7.24867 7.14 6.80533 6.776 6.516C6.42133 6.22667 5.86133 6.082 5.096 6.082H2.478V9.638ZM16.1224 14.174C15.8144 14.4633 15.4177 14.692 14.9324 14.86C14.447 15.0187 13.9524 15.098 13.4484 15.098C12.711 15.098 12.0764 14.9533 11.5444 14.664C11.0124 14.3747 10.6017 13.9593 10.3124 13.418C10.023 12.8673 9.87838 12.214 9.87838 11.458C9.87838 10.73 10.0184 10.0907 10.2984 9.54C10.5877 8.98933 10.9844 8.56 11.4884 8.252C11.9924 7.93467 12.571 7.776 13.2244 7.776C13.859 7.776 14.4004 7.916 14.8484 8.196C15.3057 8.476 15.651 8.87733 15.8844 9.4C16.127 9.91333 16.2484 10.5293 16.2484 11.248V11.472H10.9984V10.688H15.5204L15.1284 11.192C15.147 10.3987 14.993 9.792 14.6664 9.372C14.3397 8.952 13.8637 8.742 13.2384 8.742C12.585 8.742 12.0717 8.97533 11.6984 9.442C11.3344 9.89933 11.1524 10.5433 11.1524 11.374C11.1524 12.27 11.3484 12.9467 11.7404 13.404C12.1324 13.852 12.711 14.076 13.4764 14.076C13.887 14.076 14.279 14.0107 14.6524 13.88C15.0257 13.74 15.3804 13.5347 15.7164 13.264L16.1224 14.174ZM20.1293 15.098C19.5133 15.098 18.9673 14.9533 18.4913 14.664C18.0246 14.3653 17.6606 13.9453 17.3993 13.404C17.1379 12.8533 17.0073 12.2093 17.0073 11.472C17.0073 10.7347 17.1379 10.0907 17.3993 9.54C17.6699 8.98933 18.0386 8.56 18.5053 8.252C18.9813 7.93467 19.5226 7.776 20.1293 7.776C20.7639 7.776 21.3053 7.93467 21.7533 8.252C22.2013 8.56 22.5046 9.00333 22.6633 9.582L22.4953 9.68V7.958H23.7553V15H22.4953V13.236L22.6633 13.306C22.5046 13.8753 22.2013 14.3187 21.7533 14.636C21.3053 14.944 20.7639 15.098 20.1293 15.098ZM20.4093 14.062C21.0813 14.062 21.5946 13.838 21.9493 13.39C22.3133 12.9327 22.4953 12.284 22.4953 11.444C22.4953 10.604 22.3133 9.96 21.9493 9.512C21.5853 9.05467 21.0719 8.826 20.4093 8.826C19.7466 8.826 19.2286 9.05933 18.8553 9.526C18.4819 9.99267 18.2953 10.6413 18.2953 11.472C18.2953 12.3027 18.4819 12.942 18.8553 13.39C19.2286 13.838 19.7466 14.062 20.4093 14.062ZM31.7045 15H30.4445V13.138L30.6125 13.306C30.4538 13.8753 30.1505 14.3187 29.7025 14.636C29.2545 14.944 28.7132 15.098 28.0785 15.098C27.4718 15.098 26.9305 14.9487 26.4545 14.65C25.9878 14.342 25.6192 13.9127 25.3485 13.362C25.0872 12.802 24.9565 12.1533 24.9565 11.416C24.9565 10.6787 25.0872 10.0393 25.3485 9.498C25.6098 8.94733 25.9738 8.52267 26.4405 8.224C26.9165 7.92533 27.4625 7.776 28.0785 7.776C28.7132 7.776 29.2545 7.93467 29.7025 8.252C30.1505 8.56933 30.4538 9.008 30.6125 9.568L30.4305 9.736V4.696H31.7045V15ZM28.3585 14.062C29.0212 14.062 29.5345 13.838 29.8985 13.39C30.2625 12.9327 30.4445 12.284 30.4445 11.444C30.4445 10.6133 30.2625 9.96933 29.8985 9.512C29.5438 9.05467 29.0305 8.826 28.3585 8.826C27.6958 8.826 27.1778 9.05467 26.8045 9.512C26.4312 9.96 26.2445 10.5947 26.2445 11.416C26.2445 12.256 26.4312 12.9093 26.8045 13.376C27.1778 13.8333 27.6958 14.062 28.3585 14.062ZM38.9391 15.098C37.7351 15.098 36.7785 14.7947 36.0691 14.188L36.4751 13.264C36.8485 13.5533 37.2358 13.768 37.6371 13.908C38.0478 14.0387 38.4958 14.104 38.9811 14.104C39.4851 14.104 39.8678 14.02 40.1291 13.852C40.3998 13.6747 40.5351 13.4227 40.5351 13.096C40.5351 12.8347 40.4418 12.6293 40.2551 12.48C40.0778 12.3213 39.7791 12.1907 39.3591 12.088L38.1831 11.808C37.5765 11.6773 37.1098 11.444 36.7831 11.108C36.4658 10.772 36.3071 10.366 36.3071 9.89C36.3071 9.47933 36.4191 9.11533 36.6431 8.798C36.8765 8.48067 37.1985 8.23333 37.6091 8.056C38.0198 7.86933 38.5051 7.776 39.0651 7.776C39.5598 7.776 40.0265 7.85533 40.4651 8.014C40.9131 8.17267 41.2911 8.40133 41.5991 8.7L41.1931 9.61C40.8571 9.33 40.5118 9.12467 40.1571 8.994C39.8025 8.854 39.4338 8.784 39.0511 8.784C38.5751 8.784 38.2018 8.87733 37.9311 9.064C37.6698 9.25067 37.5391 9.50267 37.5391 9.82C37.5391 10.0907 37.6231 10.3053 37.7911 10.464C37.9591 10.6227 38.2251 10.7487 38.5891 10.842L39.7791 11.136C40.4511 11.276 40.9458 11.5093 41.2631 11.836C41.5805 12.1533 41.7391 12.564 41.7391 13.068C41.7391 13.684 41.4871 14.1787 40.9831 14.552C40.4791 14.916 39.7978 15.098 38.9391 15.098ZM41.9418 8.938V7.958H46.5618V8.938H41.9418ZM46.5338 13.894V14.958C46.3751 15.0047 46.2118 15.0373 46.0438 15.056C45.8851 15.084 45.7124 15.098 45.5258 15.098C44.8351 15.098 44.2891 14.902 43.8878 14.51C43.4958 14.118 43.2998 13.5393 43.2998 12.774V6.166L44.5738 5.718V12.634C44.5738 12.998 44.6251 13.2827 44.7278 13.488C44.8398 13.684 44.9844 13.824 45.1618 13.908C45.3484 13.9827 45.5584 14.02 45.7918 14.02C45.9224 14.02 46.0438 14.0107 46.1558 13.992C46.2678 13.9733 46.3938 13.9407 46.5338 13.894ZM50.3797 15.098C49.6983 15.098 49.101 14.9487 48.5877 14.65C48.0837 14.3513 47.6917 13.9313 47.4117 13.39C47.1317 12.8393 46.9917 12.1907 46.9917 11.444C46.9917 10.7067 47.1317 10.0627 47.4117 9.512C47.6917 8.952 48.0837 8.52267 48.5877 8.224C49.101 7.92533 49.6983 7.776 50.3797 7.776C51.0703 7.776 51.6677 7.92533 52.1717 8.224C52.6757 8.52267 53.0677 8.952 53.3477 9.512C53.6277 10.0627 53.7677 10.7067 53.7677 11.444C53.7677 12.1907 53.6277 12.8393 53.3477 13.39C53.0677 13.9313 52.6757 14.3513 52.1717 14.65C51.6677 14.9487 51.0703 15.098 50.3797 15.098ZM50.3797 14.062C51.0517 14.062 51.5697 13.8427 51.9337 13.404C52.2977 12.956 52.4797 12.3027 52.4797 11.444C52.4797 10.5947 52.293 9.946 51.9197 9.498C51.5557 9.05 51.0423 8.826 50.3797 8.826C49.7263 8.826 49.213 9.05 48.8397 9.498C48.4663 9.946 48.2797 10.5947 48.2797 11.444C48.2797 12.3027 48.4617 12.956 48.8257 13.404C49.1897 13.8427 49.7077 14.062 50.3797 14.062ZM54.9917 15V9.932C54.9917 9.60533 54.9824 9.27867 54.9637 8.952C54.9544 8.616 54.9264 8.28467 54.8797 7.958H56.0837L56.2377 9.708L56.0837 9.652C56.2051 9.036 56.4804 8.574 56.9097 8.266C57.3484 7.94867 57.8384 7.79 58.3797 7.79C58.5104 7.79 58.6271 7.79933 58.7297 7.818C58.8417 7.82733 58.9444 7.846 59.0377 7.874L59.0237 9.036C58.7904 8.952 58.5291 8.91 58.2397 8.91C57.7637 8.91 57.3811 9.01267 57.0917 9.218C56.8024 9.42333 56.5924 9.68467 56.4617 10.002C56.3311 10.3193 56.2657 10.66 56.2657 11.024V15H54.9917ZM59.7755 18.178L59.5095 17.198C59.9389 17.0953 60.2982 16.974 60.5875 16.834C60.8862 16.7033 61.1335 16.5307 61.3295 16.316C61.5255 16.1107 61.6982 15.8353 61.8475 15.49L62.3095 14.44L62.6035 14.02L65.1095 7.958H66.3835L63.0935 15.602C62.8415 16.1807 62.5522 16.6427 62.2255 16.988C61.8989 17.3427 61.5302 17.6087 61.1195 17.786C60.7182 17.9633 60.2702 18.094 59.7755 18.178ZM62.3235 15.392L59.1455 7.958H60.4755L62.9535 14.02L62.3235 15.392Z" fill="#0E7490"/>
<path d="M0 16.75H66.4955V17.45H0V16.75Z" fill="#0E7490"/>
<g clip-path="url(#clip0_102_13)">
<path d="M68.1668 10H79.8334" stroke="#0E7490" stroke-width="1.25" stroke-linecap="round" stroke-linejoin="round"/>
<path d="M76.5 13.3333L79.8333 10" stroke="#0E7490" stroke-width="1.25" stroke-linecap="round" stroke-linejoin="round"/>
<path d="M76.5 6.66661L79.8333 9.99994" stroke="#0E7490" stroke-width="1.25" stroke-linecap="round" stroke-linejoin="round"/>
</g>
<defs>
<clipPath id="clip0_102_13">
<rect width="20" height="20" fill="white" transform="translate(64)"/>
</clipPath>
</defs>
</svg>
